<svg xmlns="http://www.w3.org/2000/svg" version="1.1" xmlns:xlink="http://www.w3.org/1999/xlink" xmlns:svgjs="http://svgjs.dev/svgjs" width="1500" height="219" viewBox="0 0 1500 219"><g transform="matrix(1,0,0,1,-0.9090909090909918,-0.8087386556463514)"><svg viewBox="0 0 396 58" data-background-color="#1f1f1f" preserveAspectRatio="xMidYMid meet" height="219" width="1500" xmlns="http://www.w3.org/2000/svg" xmlns:xlink="http://www.w3.org/1999/xlink"><g id="tight-bounds" transform="matrix(1,0,0,1,0.2400000000000091,0.21418649327620187)"><svg viewBox="0 0 395.52 57.5716270134476" height="57.5716270134476" width="395.52"><g><svg viewBox="0 0 395.52 57.5716270134476" height="57.5716270134476" width="395.52"><g><svg viewBox="0 0 395.52 57.5716270134476" height="57.5716270134476" width="395.52"><g id="textblocktransform"><svg viewBox="0 0 395.52 57.5716270134476" height="57.5716270134476" width="395.52" id="textblock"><g><svg viewBox="0 0 395.52 57.5716270134476" height="57.5716270134476" width="395.52"><g transform="matrix(1,0,0,1,0,0)"><svg width="395.52" viewBox="2.5 -49.25 338.33 49.25" height="57.5716270134476" data-palette-color="#989da2"><g class="wordmark-text-0" data-fill-palette-color="primary" id="text-0"><path d="M33.5-40L38.15-35.35 38.15-22.15 33-17 18-17 18-2 22-2 22 0 2.5 0 2.5-2 6.5-2 6.5-38 2.5-38 2.5-40 33.5-40ZM8.75-2L15.75-2 15.75-38 8.75-38 8.75-2ZM18-38L18-19 26.65-19 26.65-38 18-38ZM35.9-23L35.9-34.5 32.4-38 28.9-38 28.9-19 31.9-19 35.9-23ZM55.65-2L59.15-2 59.15 0 48.8 0 44.15-4.65 44.15-42 40.65-42 40.65-44 51-44 55.65-39.35 55.65-2ZM46.4-5.5L49.9-2 53.4-2 53.4-38.5 49.9-42 46.4-42 46.4-5.5ZM91.65-2L95.65-2 95.65 0 84.3 0 81.3-3.05 78.25 0 67.3 0 63.15-4.15 63.15-11.85 67.3-16 80.15-16 80.15-28 74.9-28 74.9-20 64.4-20 64.4-25.85 68.55-30 87.5-30 91.65-25.85 91.65-2ZM72.65-22L72.65-28 69.65-28 66.65-25 66.65-22 72.65-22ZM82.4-5L85.4-2 89.4-2 89.4-25 86.4-28 82.4-28 82.4-5ZM65.4-5L68.4-2 72.65-2 72.65-14 68.4-14 65.4-11 65.4-5ZM77.15-2L80.15-5 80.15-14 74.9-14 74.9-2 77.15-2ZM118.34-6.2L119.89-4.65 115.24 0 105.29 0 100.64-4.65 100.64-36.5 97.14-36.5 97.14-38.5 107.24-38.5 111.39-34.35 111.39-27 118.39-27 118.39-25 111.39-25 111.39-2 114.14-2 118.34-6.2ZM102.89-5.5L106.39-2 109.14-2 109.14-33.5 106.14-36.5 102.89-36.5 102.89-5.5ZM176.09-38L172.59-38 172.59-2 176.09-2 176.09 0 156.09 0 156.09-2 161.09-2 161.09-37.7 151.24 0 139.49 0 128.64-37.9 128.64-2 133.64-2 133.64 0 122.39 0 122.39-2 126.39-2 126.39-38 122.39-38 122.39-40 132.64-40 139.79-40 150.04-4.2 159.39-40 161.69-40 176.09-40 176.09-38ZM141.19-2L148.44-2 138.09-38 130.84-38 141.19-2ZM170.34-2L170.34-38 163.34-38 163.34-2 170.34-2ZM209.09-2L213.09-2 213.09 0 201.74 0 198.74-3.05 195.69 0 184.74 0 180.59-4.15 180.59-11.85 184.74-16 197.59-16 197.59-28 192.34-28 192.34-20 181.84-20 181.84-25.85 185.99-30 204.94-30 209.09-25.85 209.09-2ZM190.09-22L190.09-28 187.09-28 184.09-25 184.09-22 190.09-22ZM199.84-5L202.84-2 206.84-2 206.84-25 203.84-28 199.84-28 199.84-5ZM182.84-5L185.84-2 190.09-2 190.09-14 185.84-14 182.84-11 182.84-5ZM194.59-2L197.59-5 197.59-14 192.34-14 192.34-2 194.59-2ZM249.09-2L253.09-2 253.09 0 241.74 0 237.59-4.15 237.59-28 234.09-28 230.59-24.5 230.59-2 233.09-2 233.09 0 215.09 0 215.09-2 219.09-2 219.09-28 215.09-28 215.09-30 225.94-30 229.49-26.5 232.99-30 244.44-30 249.09-25.35 249.09-2ZM221.34-2L228.34-2 228.34-24.5 224.84-28 221.34-28 221.34-2ZM239.84-5L242.84-2 246.84-2 246.84-24.5 243.34-28 239.84-28 239.84-5ZM271.83-41.6L264.18-34 256.58-41.65 264.23-49.25 271.83-41.6ZM264.23-46.25L259.58-41.65 264.18-37 268.83-41.6 264.23-46.25ZM270.58-2L274.58-2 274.58 0 263.73 0 259.08-4.65 259.08-28 255.08-28 255.08-30 265.93-30 270.58-25.35 270.58-2ZM261.33-5.5L264.83-2 268.33-2 268.33-24.5 264.83-28 261.33-28 261.33-5.5ZM307.08-2L311.08-2 311.08 0 299.73 0 296.73-3.05 293.68 0 282.73 0 278.58-4.15 278.58-11.85 282.73-16 295.58-16 295.58-28 290.33-28 290.33-20 279.83-20 279.83-25.85 283.98-30 302.93-30 307.08-25.85 307.08-2ZM288.08-22L288.08-28 285.08-28 282.08-25 282.08-22 288.08-22ZM297.83-5L300.83-2 304.83-2 304.83-25 301.83-28 297.83-28 297.83-5ZM280.83-5L283.83-2 288.08-2 288.08-14 283.83-14 280.83-11 280.83-5ZM292.58-2L295.58-5 295.58-14 290.33-14 290.33-2 292.58-2ZM340.83-20L330.83-20 330.83-28 325.58-28 325.58-2 335.08-2 339.03-5.95 340.58-4.4 336.18 0 318.73 0 314.08-4.65 314.08-25.35 318.73-30 337.18-30 340.83-26.35 340.83-20ZM323.33-2L323.33-28 319.83-28 316.33-24.5 316.33-5.5 319.83-2 323.33-2ZM333.08-28L333.08-22 338.58-22 338.58-25.5 336.08-28 333.08-28Z" fill="#989da2" data-fill-palette-color="primary"></path></g></svg></g></svg></g></svg></g></svg></g><g></g></svg></g><defs></defs></svg><rect width="395.52" height="57.5716270134476" fill="none" stroke="none" visibility="hidden"></rect></g></svg></g></svg>